<svg xmlns="http://www.w3.org/2000/svg" fill="none" viewBox="0 0 1024 1024" height="1024" width="1024">
<g clip-path="url(#clip0_2_4795)">
<rect fill="white" height="1024" width="1024"></rect>
<rect fill="white" height="1024" width="1024"></rect>
<path fill="#2E1E1B" d="M432.731 29.2147C433.055 32.0355 431.693 34.078 428.646 35.3425L404.28 25.2267C403.031 24.7067 401.674 24.4976 400.326 24.6171C398.979 24.7366 397.68 25.1813 396.542 25.913C395.404 26.6446 394.46 27.6413 393.792 28.8178C393.123 29.9943 392.751 31.3154 392.705 32.6677C392.186 46.7067 396.547 59.0111 405.788 69.5809C407.084 71.0724 406.744 71.8343 404.766 71.8668L347.718 73.2285C342.109 73.3582 340.715 75.8548 343.536 80.7182C344.282 81.9827 345.206 83.166 346.308 84.2684C350.782 88.8076 350.037 92.2282 344.071 94.5303L279.242 119.431C276.518 120.468 276.469 121.636 279.096 122.933C290.962 128.736 301.5 136.372 310.708 145.839C310.784 145.932 310.826 146.049 310.828 146.169C310.83 146.289 310.791 146.407 310.718 146.502C310.645 146.598 310.542 146.666 310.425 146.696C310.309 146.725 310.186 146.715 310.076 146.666C263.484 121.311 215.547 101.631 166.265 87.6242C142.077 80.7505 121.375 81.0099 104.159 88.4023C80.2309 122.203 73.6653 163.348 74.2002 204.152C73.6491 227.496 76.0645 250.565 81.4467 273.358C82.8085 279.129 81.8682 284.074 78.6259 288.191C77.7181 289.326 77.4425 290.591 77.7992 291.985L79.2582 297.918C79.6797 299.539 80.3281 299.636 81.2035 298.21C96.6368 272.888 116.058 250.354 139.467 230.609C163.201 210.182 189.641 193.112 218.789 179.397C220.248 178.716 220.329 177.889 219.033 176.916C196.791 160.413 174.873 143.472 153.279 126.094C141.315 116.432 129.789 113.319 118.7 116.756L122.153 108.245C165.178 120.306 201.006 143.618 229.635 178.181C230.899 179.705 230.559 180.694 228.613 181.148L226.182 181.731C156.489 208.285 97.9823 272.288 65.1057 337.798C60.8583 337.701 61.3284 334.345 66.516 327.731C66.7106 327.439 66.6458 327.244 66.3215 327.147C65.9 327.017 65.4785 326.888 65.057 326.758C64.6933 326.633 64.2969 326.643 63.9399 326.786C63.5828 326.929 63.2889 327.195 63.1117 327.536C49.2672 353.734 37.4329 380.774 27.6088 408.658C24.4476 417.607 24.9825 427.674 24.3503 437.449L41.2263 441.632C42.0369 444.485 40.821 446.706 37.5788 448.295C28.1438 448.197 20.7676 444.615 15.4502 437.547C14.3479 436.12 14.0399 434.531 14.5262 432.78C27.1386 386.416 46.5112 343.099 72.644 302.83C73.5518 301.468 73.8112 299.993 73.4221 298.404C63.063 253.564 47.3056 59.3678 140.683 75.7089C184.486 83.3607 226.279 97.1564 266.062 117.096C267.424 117.81 268.769 117.745 270.098 116.902C291.433 103.317 314.534 94.4653 339.402 90.3476C339.808 90.2726 340.183 90.0818 340.483 89.7983C340.783 89.5149 340.994 89.1509 341.092 88.7501C341.189 88.3492 341.169 87.9287 341.033 87.5391C340.897 87.1495 340.652 86.8074 340.326 86.5542L333.809 81.6908C332.858 80.9687 332.131 79.9908 331.712 78.8719C331.294 77.7529 331.202 76.5396 331.447 75.3748C331.692 74.2099 332.265 73.1421 333.097 72.2966C333.929 71.4511 334.986 70.8632 336.143 70.6022C353.846 66.5818 371.906 64.912 390.322 65.5929C390.666 65.6066 391.009 65.5351 391.319 65.3845C391.629 65.234 391.897 65.009 392.099 64.7299C392.301 64.4507 392.431 64.126 392.478 63.7844C392.524 63.4429 392.485 63.0951 392.365 62.7722C388.231 51.1486 382.297 24.8862 397.666 19.4392C399.189 18.888 400.73 18.8556 402.286 19.342L432.731 29.2147Z"></path>
<path fill="#FEFEFE" d="M428.646 35.3425C453.546 43.967 472.741 49.6086 486.229 52.2672C553.246 65.4471 605.868 77.1192 663.013 104.987C683.829 115.151 707.416 130.228 729.837 142.629C731.782 143.699 731.977 145.029 730.42 146.617L728.67 148.32C728.234 148.769 727.969 149.358 727.923 149.983C727.877 150.607 728.051 151.229 728.415 151.738C728.78 152.247 729.312 152.613 729.918 152.77C730.525 152.927 731.167 152.867 731.733 152.599C770.787 133.048 822.29 113.303 860.808 108.488C883.05 105.667 903.347 109.056 921.698 118.653C910.172 134.653 891.399 130.665 879.192 146.374C875.82 142.71 872.902 141.592 870.438 143.018C835.227 148.79 803.128 162.099 774.142 182.947C773.948 183.401 773.705 183.741 773.413 183.968C773.218 184.13 773.024 184.13 772.829 183.968L750.312 166.703C749.663 166.217 749.031 166.233 748.415 166.752C747.961 167.141 747.653 167.627 747.491 168.211C747.264 169.184 746.664 169.524 745.691 169.232C721.034 161.743 696.717 147.882 675.172 140.83C602.513 117.145 512.831 112.914 431.661 138.885C356.375 162.942 293.313 186.238 242.474 208.772C241.08 209.388 239.832 209.209 238.73 208.237C234.158 204.152 232.91 199.045 234.985 192.917C235.601 191.069 235.017 189.772 233.234 189.026C229.181 187.308 226.83 184.876 226.182 181.731L228.614 181.148C230.559 180.694 230.9 179.705 229.635 178.181C201.006 143.618 165.179 120.306 122.154 108.245L114.761 102.36C113.529 101.355 112.881 100.042 112.816 98.4209C112.751 95.1787 109.865 91.8391 104.159 88.4023C121.375 81.01 142.077 80.7506 166.265 87.6242C215.547 101.631 263.484 121.311 310.076 146.666C310.186 146.715 310.309 146.725 310.426 146.696C310.542 146.666 310.645 146.598 310.718 146.502C310.791 146.407 310.83 146.289 310.828 146.169C310.826 146.049 310.784 145.932 310.708 145.839C301.5 136.372 290.963 128.736 279.096 122.933C276.47 121.636 276.518 120.468 279.242 119.431L344.071 94.5303C350.037 92.2283 350.783 88.8076 346.308 84.2684C345.206 83.166 344.282 81.9827 343.536 80.7182C340.715 75.8548 342.109 73.3582 347.719 73.2285L404.766 71.8668C406.744 71.8344 407.085 71.0724 405.788 69.581C396.547 59.0112 392.186 46.7067 392.705 32.6677C392.751 31.3154 393.124 29.9943 393.792 28.8179C394.46 27.6414 395.404 26.6447 396.542 25.913C397.68 25.1813 398.979 24.7367 400.327 24.6171C401.674 24.4976 403.031 24.7067 404.28 25.2267L428.646 35.3425ZM400.778 44.2426C402.432 51.635 415.904 72.645 427.965 75.4171C429.716 75.8386 429.894 75.4657 428.5 74.2985C416.147 63.8908 411.527 56.7902 405.836 42.6376C397.471 21.9195 395.785 22.4546 400.778 44.2426Z"></path>
<path fill="#2E1E1B" d="M427.965 75.4171C415.903 72.645 402.432 51.635 400.778 44.2426C395.785 22.4545 397.471 21.9195 405.836 42.6376C411.526 56.7901 416.146 63.8908 428.5 74.2985C429.894 75.4657 429.715 75.8386 427.965 75.4171Z"></path>
<path fill="#372720" d="M432.731 29.2148C454.422 34.8077 474.848 40.1088 497.998 43.1728C582.962 54.4559 658.393 78.627 728.523 129.936C731.879 132.416 732.609 134.216 734.603 137.912C735.543 139.663 736.888 140.084 738.639 139.176C781.583 117.194 853.27 91.6123 899.861 99.491C968.435 111.066 934.586 282.939 921.358 320.922C918.634 328.736 918.666 334.977 921.455 339.646C941.589 373.204 953.553 423.88 958.465 462.301C958.692 463.955 958.125 465.268 956.763 466.241C941.2 477.297 924.843 476.421 907.691 463.614C904.935 461.604 903.914 458.2 904.627 453.401L946.356 461.669C946.598 461.723 946.849 461.714 947.087 461.643C947.325 461.573 947.542 461.443 947.72 461.265C947.898 461.087 948.031 460.867 948.106 460.623C948.182 460.38 948.199 460.121 948.155 459.87C928.653 346.747 877.538 261.151 789.219 189.707C789.381 187.989 789.932 186.562 790.872 185.428C824.365 212.014 854.453 242.151 881.137 275.838L910.415 322.868C910.6 323.157 910.869 323.384 911.185 323.518C911.502 323.652 911.851 323.687 912.188 323.619C912.525 323.551 912.833 323.382 913.072 323.135C913.311 322.888 913.47 322.574 913.528 322.235L922.914 262.707C932.932 213.392 932.527 165.374 921.698 118.653C903.347 109.056 883.05 105.668 860.808 108.488C822.29 113.303 770.786 133.049 731.733 152.6C731.167 152.867 730.525 152.928 729.918 152.77C729.312 152.613 728.78 152.248 728.415 151.738C728.051 151.229 727.876 150.608 727.923 149.983C727.969 149.358 728.233 148.77 728.669 148.32L730.42 146.617C731.976 145.029 731.782 143.699 729.837 142.629C707.416 130.228 683.829 115.151 663.013 104.987C605.868 77.1194 553.246 65.4472 486.228 52.2673C472.741 49.6087 453.546 43.9671 428.646 35.3426C431.693 34.0781 433.055 32.0356 432.731 29.2148Z"></path>
<path fill="#E9B6A0" d="M104.159 88.4021C109.865 91.8389 112.751 95.1785 112.816 98.4207C112.881 100.042 113.529 101.355 114.761 102.36L122.153 108.245L118.7 116.756C110.368 144.542 108.147 173.982 112.038 205.075C107.044 197.878 105.132 188.572 106.299 177.159C106.461 175.668 105.812 174.711 104.353 174.29L87.9637 169.621C87.3582 169.444 86.7206 169.406 86.0985 169.511C85.4764 169.615 84.8859 169.859 84.3713 170.224C83.8568 170.589 83.4314 171.065 83.1271 171.618C82.8227 172.171 82.6473 172.785 82.614 173.415L80.9118 202.011C80.8469 203.341 80.1498 204.022 78.8205 204.054L74.2003 204.151C73.6653 163.347 80.2309 122.203 104.159 88.4021Z"></path>
<path fill="#A8615D" d="M139.467 230.609L124.829 235.618C122.948 236.266 121.521 235.715 120.549 233.964C115.556 224.756 112.719 215.127 112.038 205.076C108.147 173.982 110.368 144.542 118.701 116.756C129.789 113.319 141.315 116.432 153.279 126.094C174.873 143.472 196.791 160.413 219.033 176.916C220.33 177.889 220.249 178.716 218.79 179.397C189.642 193.112 163.201 210.182 139.467 230.609Z"></path>
<path fill="#FDFAEE" d="M774.142 182.947C779.881 184.114 784.906 186.368 789.218 189.707C877.538 261.151 928.652 346.747 948.155 459.87C948.199 460.121 948.182 460.38 948.106 460.623C948.03 460.867 947.898 461.087 947.72 461.265C947.542 461.443 947.324 461.572 947.086 461.643C946.848 461.714 946.597 461.723 946.355 461.669L904.627 453.401L891.496 447.906C887.994 446.414 887.313 447.241 889.453 450.386C903.46 470.975 921.13 491.352 942.464 511.519C946.404 515.264 947.814 516.431 948.057 522.413C951.559 606.356 926.172 682.76 848.017 722.202C845.78 723.337 845.845 724.277 848.212 725.023C862.17 729.594 897.429 698.906 908.275 688.742C925.929 672.206 935.267 650.661 944.215 628.581L952.629 618.222L984.873 606.307C985.522 606.372 986.17 606.421 986.819 606.453C1027.62 661.312 1016.97 728.962 975.876 781.147C975.033 774.305 977.4 767.675 982.977 761.255C984.176 759.861 984.03 758.613 982.539 757.51C971.839 749.534 954.963 750.264 941.735 748.221C939.984 747.93 939.303 746.924 939.692 745.206C945.042 722.38 946.728 699.636 944.75 676.972C945.074 674.67 944.977 672.676 944.458 670.99C944.005 669.402 943.21 669.223 942.075 670.455C930.063 683.635 918.099 716.171 899.618 719.527C884.541 722.283 870.032 725.558 856.09 729.351C855.609 729.465 855.178 729.736 854.867 730.121C854.556 730.506 854.381 730.983 854.369 731.478C854.358 731.973 854.512 732.457 854.806 732.856C855.099 733.254 855.517 733.544 855.993 733.68C867.179 737.279 878.381 737.441 889.599 734.166C892.388 733.323 893.052 734.166 891.593 736.695C861.1 788.685 821.901 814.461 767.43 853.66C764.674 855.605 759.146 860.874 750.846 869.466L725.07 894.464C724.758 894.772 724.538 895.164 724.438 895.592C724.337 896.019 724.36 896.465 724.504 896.876C724.648 897.287 724.906 897.645 725.248 897.907C725.59 898.17 726.001 898.325 726.432 898.355C738.931 899.473 750.457 905.893 748.56 920.435C745.594 943.05 731.684 946.211 715.051 957.202C713.787 958.045 712.393 958.564 710.869 958.758L693.604 960.947C694.82 953.749 700.802 945.141 700.51 940.034C700.283 936.662 698.289 934.231 694.528 932.739L682.613 930.064L671.524 940.958C670.422 942.061 669.125 942.466 667.633 942.174C661.732 941.007 658.117 943.471 656.788 949.566C656.575 950.618 655.989 951.556 655.137 952.207C654.285 952.858 653.225 953.178 652.155 953.106C651.085 953.035 650.078 952.578 649.32 951.819C648.562 951.061 648.104 950.053 648.034 948.983L647.742 945.481C647.093 936.014 650.644 928.411 658.393 922.672C659.528 921.829 659.446 921.132 658.15 920.581C656.204 919.738 654.372 919.981 652.654 921.31C647.077 925.687 642.295 932.01 638.307 940.277L604.992 918.538C617.151 893.735 635.081 882.565 658.782 885.029C660.176 885.191 660.549 884.64 659.9 883.376C658.733 881.171 656.707 880.004 653.821 879.874C634.335 879.031 617.945 886.877 604.652 903.413C597.746 903.705 593.126 907.871 590.791 915.912L539.142 920.581L515.165 920.532C371.889 898.89 237.465 824.382 153.96 704.013L142.385 680.96C170.593 664.911 208.479 647.111 216.892 629.068C217.541 627.674 218.546 626.652 219.908 626.004C230.542 621.043 234.206 613.018 230.899 601.93C230.425 600.384 230.459 598.715 230.996 597.164C233.72 589.707 232.164 584.746 226.327 582.282C225.744 581.147 225.274 580.693 224.917 580.92C223.977 579.007 222.939 578.261 221.804 578.683C221.351 570.253 223.766 563.266 229.051 557.722C239.686 570.01 252.865 576.916 268.59 578.44C324.666 587.583 360.46 544.347 369.847 493.427C370.819 435.066 351.025 398.558 310.464 383.903C217.573 350.346 143.698 436.185 137.181 523.629C136.208 525.574 135.803 527.277 135.965 528.736C136.021 529.297 135.887 529.861 135.586 530.338C135.284 530.814 134.832 531.176 134.301 531.367C133.77 531.557 133.19 531.564 132.655 531.387C132.119 531.209 131.658 530.858 131.345 530.389C125.541 521.797 123.483 512.395 125.168 502.181C125.428 500.593 125.152 499.117 124.342 497.756C115.442 482.533 111.162 462.399 100.851 449.17C99.976 448.036 99.5545 446.771 99.587 445.377L99.7815 438.763C99.8139 437.336 99.1168 436.59 97.6902 436.525C94.0913 436.331 91.4489 434.661 89.7629 431.516C95.7611 426.523 101.743 421.481 107.709 416.391C108.065 416.067 108.179 415.678 108.049 415.224C107.887 414.737 107.595 414.64 107.174 414.932L93.6536 424.415L90.2979 422.324C89.0658 421.578 87.7364 421.125 86.3098 420.962L77.0694 419.844C76.154 419.734 75.3141 419.282 74.7185 418.578C74.123 417.874 73.8161 416.971 73.8595 416.05C74.3459 405.01 73.8109 395.381 79.5983 385.265C85.9532 374.176 90.9625 362.796 94.6263 351.124C94.8139 350.497 94.7658 349.819 94.4912 349.22C94.2166 348.621 93.7349 348.144 93.1383 347.878C92.5418 347.613 91.8724 347.58 91.2585 347.784C90.6446 347.988 90.1293 348.415 89.8115 348.984L63.4032 394.068C63.046 394.677 62.4696 395.128 61.7917 395.326C61.1138 395.525 60.3855 395.458 59.7556 395.138C54.7625 392.641 50.1585 388.637 45.9435 383.125L65.1054 337.798C97.982 272.288 156.489 208.286 226.181 181.731C226.83 184.876 229.181 187.308 233.233 189.026C235.017 189.772 235.6 191.069 234.984 192.917C232.909 199.045 234.157 204.152 238.729 208.237C239.831 209.21 241.08 209.388 242.474 208.772C293.313 186.238 356.375 162.942 431.661 138.885C512.831 112.914 602.512 117.145 675.171 140.83C696.716 147.882 721.033 161.743 745.691 169.232C746.664 169.524 747.263 169.184 747.49 168.211C747.652 167.627 747.961 167.141 748.414 166.752C749.03 166.233 749.663 166.217 750.311 166.703L772.829 183.968C773.023 184.131 773.218 184.131 773.412 183.968C773.704 183.741 773.947 183.401 774.142 182.947ZM286.877 308.472C335.803 295.73 384.729 395.965 399.611 430.738C400.032 431.678 400.519 431.711 401.07 430.835C401.394 430.284 401.443 429.684 401.216 429.036C379.184 372.231 332.982 276.714 253.66 306.77C250.288 308.034 250.401 308.666 254 308.666H267.666C269.416 308.667 271.115 309.138 272.578 310.028C308.989 332.205 340.828 359.7 368.096 392.511C368.355 392.868 368.598 392.868 368.825 392.511C368.955 392.317 369.068 392.155 369.166 392.025C369.328 391.733 369.247 391.409 368.923 391.053C344.508 361.224 316.998 334.523 286.391 310.952C284.834 309.785 284.996 308.958 286.877 308.472ZM695.014 342.516C656.172 353.572 620.88 371.583 589.138 396.548C588.931 396.703 588.795 396.933 588.758 397.189C588.722 397.444 588.788 397.704 588.943 397.91C589.098 398.116 589.328 398.253 589.584 398.289C589.839 398.326 590.099 398.259 590.305 398.105C625.03 373.787 662.883 356.101 703.866 345.045C706.297 344.364 706.459 343.342 704.352 341.981C674.75 322.527 645.164 323.338 615.595 344.412C581.227 368.924 556.553 395.105 541.574 422.956C530.809 442.994 531.766 443.561 544.443 424.659C572.602 382.687 636.264 308.91 695.111 341.64C695.76 342.029 695.727 342.321 695.014 342.516ZM557.963 420.525L572.116 410.117C572.278 410.02 572.31 409.89 572.213 409.728C571.889 409.274 571.565 408.982 571.24 408.853C570.884 408.691 570.43 408.771 569.879 409.096C564.432 412.241 560.217 415.823 557.234 419.844C557.165 419.937 557.134 420.048 557.145 420.159C557.156 420.27 557.209 420.374 557.294 420.454C557.38 420.534 557.493 420.584 557.615 420.597C557.736 420.61 557.86 420.585 557.963 420.525ZM564.091 486.181C560.492 502.554 561.984 517.777 568.566 531.848C567.042 537.944 568.663 546.455 573.429 557.381C589.057 592.463 616.697 611.089 656.35 613.262C656.674 615.272 659.479 616.358 664.764 616.52C667.779 616.585 668.265 617.736 666.223 619.973L657.615 629.408C656.35 630.77 655.669 632.391 655.572 634.272C652.703 705.375 746.566 724.828 798.848 714.81C824.3 709.914 841.759 706.769 851.227 705.375C852.783 705.148 854.226 704.629 855.555 703.818L864.018 698.663C865.152 697.982 866.125 698.177 866.936 699.247C869.951 703.235 873.907 702.91 878.802 698.274C880.002 697.139 879.921 696.086 878.559 695.113L873.744 691.66C873.244 691.306 872.854 690.818 872.619 690.252C872.384 689.686 872.313 689.065 872.415 688.461C872.516 687.857 872.786 687.293 873.193 686.835C873.601 686.377 874.129 686.044 874.717 685.872L884.541 683.1C886.616 682.517 887.475 681.171 887.119 679.064C885.238 668.137 890.75 660.469 903.655 656.06C906.378 659.14 910.204 659.545 915.132 657.276C915.78 656.972 916.312 656.467 916.648 655.836C916.984 655.204 917.107 654.481 916.997 653.774C916.888 653.067 916.552 652.415 916.04 651.915C915.528 651.415 914.869 651.095 914.159 651.002C890.458 648.278 866.206 646.592 841.403 645.944C830.995 645.652 825.548 639.962 823.116 630.575C822.695 629.019 823.279 628.176 824.867 628.047L838.193 626.733C839.086 626.648 839.922 626.252 840.56 625.614C841.198 624.976 841.599 624.134 841.695 623.232L842.521 614.915C842.684 613.391 843.526 612.516 845.05 612.289L872.966 608.107C873.777 607.977 874.166 607.523 874.134 606.745C874.134 606.226 874.15 605.675 874.182 605.091C874.247 603.989 873.728 603.519 872.626 603.681L813.341 613.116C811.914 613.343 810.65 613.002 809.548 612.095L802.107 605.967C800.777 604.897 800.275 603.535 800.599 601.881C801.215 598.412 800.339 595.997 797.973 594.635C810.52 548.692 802.69 505.91 774.482 466.289C724.73 389.691 588.749 382.542 564.091 486.181ZM415.563 505.586C423.506 504.224 430.558 501.176 436.718 496.443C437.009 496.268 437.218 495.986 437.3 495.658C437.382 495.329 437.33 494.982 437.156 494.692C436.982 494.402 436.7 494.192 436.371 494.11C436.043 494.028 435.696 494.08 435.405 494.254L415.028 503.738C410.651 505.78 410.829 506.396 415.563 505.586ZM503.007 504.905C505.049 508.374 507.627 510.222 510.74 510.449C511.169 510.494 511.6 510.379 511.95 510.125C512.3 509.871 512.543 509.497 512.634 509.075C512.724 508.652 512.655 508.211 512.44 507.837C512.225 507.462 511.879 507.18 511.469 507.045L503.542 504.273C502.796 503.981 502.618 504.192 503.007 504.905ZM407.149 551.496C419.697 565.049 434.173 575.603 450.579 583.157C440.723 618.887 419.081 641.956 385.653 652.364C384.518 652.688 384.113 653.433 384.437 654.601C384.567 655.152 384.842 655.59 385.264 655.914C385.847 656.4 386.771 656.497 388.036 656.206C400.551 653.482 412.791 648.975 424.755 642.685C434.238 660.583 449.217 679.55 470.519 664.376C471.881 663.436 472.821 662.171 473.34 660.583C474.994 655.719 478.122 652.072 482.726 649.64L511.275 670.553C512.182 671.234 513.106 671.234 514.047 670.553C515.214 669.742 515.376 669.029 514.533 668.413C486.196 648.635 470.422 620.184 467.212 583.06C483.91 579.493 499.035 573.657 512.588 565.552C513.945 564.732 515.002 563.504 515.603 562.05C519.915 551.675 517.062 544.315 507.043 539.97C474.005 525.607 442.052 526.304 411.186 542.061C407.587 543.909 406.241 547.054 407.149 551.496Z"></path>
<path fill="#E9B6A0" d="M921.698 118.653C932.527 165.374 932.933 213.392 922.914 262.707C921.682 262.577 920.174 262.804 918.391 263.388C917.094 263.842 916.511 263.388 916.64 262.026C917.581 252.623 913.69 245.961 904.968 242.037C903.606 241.454 902.585 240.481 901.904 239.119C898.727 232.57 893.182 229.603 885.271 230.219C889.697 206.34 892.518 167.433 879.192 146.374C891.399 130.665 910.172 134.653 921.698 118.653Z"></path>
<path fill="#9B6364" d="M879.192 146.374C892.517 167.433 889.697 206.34 885.271 230.219L879.095 255.363C878.883 256.2 878.861 257.074 879.029 257.924C879.197 258.773 879.552 259.576 880.067 260.275C884.606 266.533 884.963 271.72 881.137 275.838C854.453 242.151 824.365 212.014 790.872 185.427C788.992 184.487 787.825 183.303 787.371 181.877C787.189 181.296 787.209 180.669 787.43 180.096C787.65 179.523 788.057 179.037 788.586 178.716C813.422 163.412 840.09 153.053 868.59 147.639C869.822 147.379 870.47 146.844 870.535 146.034C870.6 145.288 870.567 144.283 870.438 143.018C872.902 141.592 875.82 142.71 879.192 146.374Z"></path>
<path fill="#2E1E1B" d="M870.437 143.018C870.567 144.283 870.599 145.288 870.535 146.034C870.47 146.844 869.821 147.379 868.589 147.639C840.09 153.053 813.422 163.412 788.586 178.716C788.057 179.037 787.65 179.523 787.429 180.096C787.209 180.669 787.188 181.296 787.37 181.877C787.824 183.304 788.991 184.487 790.872 185.427C789.932 186.562 789.38 187.989 789.218 189.707C784.906 186.368 779.881 184.114 774.142 182.947C803.128 162.099 835.226 148.79 870.437 143.018Z"></path>
<path fill="#D0988B" d="M112.037 205.076C112.718 215.127 115.555 224.756 120.548 233.964C121.521 235.715 122.947 236.266 124.828 235.618L139.467 230.609C116.058 250.354 96.6364 272.888 81.2032 298.21C80.3278 299.637 79.6793 299.539 79.2578 297.918L77.7988 291.985C77.4421 290.591 77.7177 289.326 78.6256 288.191C81.8679 284.074 82.8081 279.129 81.4464 273.358C76.0642 250.565 73.6487 227.496 74.1999 204.152L78.8201 204.054C80.1495 204.022 80.8465 203.341 80.9114 202.012L82.6136 173.415C82.6469 172.785 82.8223 172.171 83.1267 171.618C83.431 171.066 83.8564 170.589 84.371 170.224C84.8855 169.859 85.476 169.615 86.0981 169.511C86.7202 169.407 87.3578 169.444 87.9633 169.621L104.353 174.29C105.812 174.712 106.46 175.668 106.298 177.16C105.131 188.572 107.044 197.878 112.037 205.076Z"></path>
<path fill="#C28780" d="M885.271 230.219C893.182 229.603 898.727 232.57 901.904 239.119C902.585 240.481 903.606 241.454 904.968 242.037C913.69 245.96 917.58 252.623 916.64 262.026C916.511 263.388 917.094 263.842 918.391 263.388C920.174 262.804 921.682 262.577 922.914 262.707L913.528 322.235C913.47 322.574 913.311 322.887 913.072 323.134C912.833 323.381 912.525 323.55 912.188 323.619C911.851 323.687 911.502 323.652 911.185 323.518C910.869 323.384 910.6 323.157 910.415 322.867L881.137 275.838C884.963 271.72 884.607 266.533 880.067 260.275C879.552 259.576 879.197 258.773 879.029 257.924C878.861 257.074 878.883 256.2 879.095 255.363L885.271 230.219Z"></path>
<path fill="#170F0A" d="M286.391 310.952C316.998 334.523 344.509 361.223 368.923 391.052C369.247 391.409 369.328 391.733 369.166 392.025C369.069 392.155 368.956 392.317 368.826 392.511C368.599 392.868 368.356 392.868 368.096 392.511C340.829 359.699 308.99 332.205 272.579 310.028C271.116 309.137 269.417 308.666 267.667 308.666H254.001C250.402 308.666 250.288 308.034 253.66 306.769C332.982 276.713 379.185 372.231 401.216 429.035C401.443 429.684 401.394 430.284 401.07 430.835C400.519 431.71 400.033 431.678 399.611 430.738C384.729 395.964 335.803 295.729 286.877 308.471C284.997 308.958 284.835 309.785 286.391 310.952Z"></path>
<path fill="#4E423D" d="M65.1057 337.798L45.9438 383.125L34.6607 413.327L24.3503 437.449C24.9825 427.674 24.4475 417.607 27.6088 408.658C37.4328 380.774 49.2672 353.734 63.1117 327.536C63.2889 327.195 63.5828 326.929 63.9398 326.786C64.2969 326.643 64.6933 326.633 65.057 326.758C65.4785 326.888 65.9 327.018 66.3215 327.147C66.6457 327.245 66.7106 327.439 66.516 327.731C61.3284 334.345 60.8583 337.701 65.1057 337.798Z"></path>
<path fill="#170F0A" d="M695.112 341.64C636.264 308.909 572.602 382.687 544.443 424.658C531.766 443.561 530.809 442.993 541.574 422.956C556.553 395.105 581.227 368.924 615.595 344.412C645.164 323.337 674.75 322.527 704.352 341.98C706.46 343.342 706.298 344.363 703.866 345.044C662.883 356.101 625.03 373.787 590.305 398.104C590.099 398.259 589.839 398.325 589.584 398.289C589.329 398.252 589.098 398.116 588.943 397.91C588.789 397.703 588.722 397.444 588.759 397.188C588.795 396.933 588.932 396.703 589.138 396.548C620.88 371.582 656.172 353.571 695.014 342.515C695.728 342.321 695.76 342.029 695.112 341.64Z"></path>
<path fill="#E1DBD1" d="M93.6539 424.415L73.9084 434.872C70.7958 429.165 66.8727 427.852 62.139 430.932C60.6151 431.905 59.7235 431.5 59.4641 429.717L59.1723 427.382C58.9453 425.826 59.4641 424.578 60.7286 423.637C62.6739 422.178 63.6466 420.314 63.6466 418.044C63.6546 416.83 63.3099 415.639 62.6543 414.616C61.9986 413.594 61.0602 412.784 59.953 412.284C58.8459 411.785 57.6175 411.617 56.417 411.802C55.2166 411.987 54.0956 412.517 53.1903 413.327L46.8679 419.017C45.2792 420.444 43.5445 420.654 41.664 419.649C38.5839 417.963 36.2494 415.856 34.6607 413.327L45.9438 383.125C50.1588 388.637 54.7628 392.641 59.7559 395.138C60.3857 395.458 61.114 395.525 61.792 395.326C62.4699 395.128 63.0463 394.677 63.4035 394.068L89.8118 348.984C90.1296 348.415 90.6448 347.988 91.2587 347.784C91.8727 347.58 92.542 347.613 93.1386 347.878C93.7351 348.144 94.2169 348.621 94.4915 349.22C94.7661 349.819 94.8142 350.497 94.6266 351.124C90.9628 362.796 85.9535 374.176 79.5986 385.265C73.8112 395.381 74.3461 405.01 73.8598 416.05C73.8164 416.971 74.1233 417.874 74.7188 418.578C75.3143 419.282 76.1543 419.734 77.0696 419.844L86.3101 420.962C87.7367 421.125 89.0661 421.578 90.2981 422.324L93.6539 424.415Z"></path>
<path fill="#412D27" d="M369.847 493.427C369.231 492.779 368.712 492.228 368.29 491.774C367.253 490.606 366.491 490.769 366.005 492.26L360.752 509.185C359.942 507.661 358.353 506.607 355.986 506.023C360.266 499.377 362.292 491.547 362.065 482.533C361.028 443.075 341.704 416.472 304.093 402.725C294.172 397.342 281.803 396.386 266.986 399.855C256.221 399.953 244.889 403.162 232.99 409.485C215.352 407.604 198.72 420.136 183.092 447.079C166.297 471.591 156.1 499.96 152.501 532.189C152.339 533.745 152.809 535.091 153.911 536.225L155.954 538.219C156.212 538.5 156.364 538.861 156.387 539.241C156.409 539.621 156.299 539.997 156.076 540.306C155.854 540.615 155.531 540.837 155.163 540.935C154.795 541.034 154.404 541.002 154.057 540.845L146.665 537.149C146.405 537.018 146.119 536.95 145.828 536.951C145.536 536.951 145.248 537.02 144.985 537.151C144.722 537.283 144.491 537.474 144.31 537.71C144.129 537.945 144.003 538.22 143.941 538.511L143.309 541.721C143.241 542.063 143.254 542.416 143.347 542.753C143.44 543.09 143.611 543.401 143.845 543.664C144.08 543.927 144.373 544.134 144.701 544.269C145.03 544.405 145.385 544.464 145.741 544.444L161.644 543.18C183.497 548.53 203.551 560.364 221.805 578.683C222.939 578.261 223.977 579.007 224.917 580.92L220.248 580.336C218.848 580.145 217.52 579.574 216.406 578.683C194.261 561.045 169.02 551.205 140.683 549.162C138.77 549.032 137.781 547.995 137.716 546.049L137.181 523.629C143.698 436.185 217.573 350.346 310.464 383.903C351.025 398.558 370.819 435.066 369.847 493.427Z"></path>
<path fill="#715337" d="M304.093 402.725L281.235 403.503C279.647 403.568 278.22 404.086 276.955 405.059C256.529 421.238 246.624 442.394 247.24 468.526L222.291 471.445L221.561 446.398C228.727 423.183 243.868 407.669 266.985 399.855C281.803 396.386 294.172 397.342 304.093 402.725Z"></path>
<path fill="#FEFEFE" d="M266.986 399.855C243.868 407.669 228.727 423.183 221.561 446.398C210.132 479.421 205.269 528.298 229.051 557.721C223.766 563.266 221.351 570.253 221.804 578.683C203.55 560.364 183.497 548.53 161.644 543.18L161.401 539.678C162.925 537.83 163.8 534.993 164.027 531.167C166.945 483.895 197.293 441.194 232.99 409.485C244.889 403.162 256.221 399.952 266.986 399.855Z"></path>
<path fill="#2E1E1B" d="M304.094 402.724C341.704 416.472 361.028 443.074 362.066 482.533C362.293 491.546 360.266 499.376 355.986 506.023C314.015 558.791 248.116 536.809 247.24 468.526C246.624 442.394 256.53 421.238 276.956 405.059C278.22 404.086 279.647 403.567 281.236 403.503L304.094 402.724Z"></path>
<path fill="#715337" d="M232.99 409.485C197.293 441.194 166.945 483.895 164.027 531.167C163.8 534.993 162.925 537.83 161.401 539.678L159.65 538.608C159.234 538.348 158.901 537.975 158.694 537.535C158.487 537.094 158.413 536.605 158.483 536.128C162.536 504.678 172.538 475.173 188.49 447.614C189.852 445.279 188.053 445.101 183.092 447.079C198.72 420.135 215.352 407.604 232.99 409.485Z"></path>
<path fill="#B4AAA6" d="M557.964 420.525C557.86 420.585 557.737 420.61 557.615 420.597C557.493 420.584 557.38 420.534 557.294 420.454C557.209 420.374 557.156 420.27 557.145 420.159C557.134 420.048 557.166 419.937 557.234 419.844C560.217 415.823 564.432 412.241 569.879 409.096C570.43 408.772 570.884 408.691 571.241 408.853C571.565 408.982 571.889 409.274 572.213 409.728C572.311 409.89 572.278 410.02 572.116 410.117L557.964 420.525Z"></path>
<path fill="#412D27" d="M774.482 466.289C784.307 490.477 791.051 513.351 794.714 534.912C796.011 542.564 794.244 549.47 789.413 555.63L780.854 520.37C770.932 488.11 752.305 462.739 724.973 444.258L712.474 437.741C700.867 432.262 688.838 429.311 676.388 428.89C664.002 424.61 655.588 425.112 651.146 430.397C629.067 432.472 609.127 440.578 591.327 454.714C592.17 452.672 591.489 451.18 589.284 450.24C587.728 449.559 586.496 449.948 585.588 451.407L564.091 486.181C588.749 382.541 724.73 389.691 774.482 466.289Z"></path>
<path fill="#CEC3B9" d="M73.9084 434.872L41.2263 441.632L24.3503 437.449L34.6607 413.327C36.2494 415.856 38.5839 417.963 41.664 419.649C43.5445 420.654 45.2792 420.443 46.8679 419.017L53.1903 413.327C54.0956 412.517 55.2166 411.987 56.417 411.802C57.6175 411.617 58.8459 411.784 59.953 412.284C61.0602 412.784 61.9986 413.594 62.6543 414.616C63.3099 415.639 63.6546 416.83 63.6466 418.044C63.6466 420.314 62.6739 422.178 60.7286 423.637C59.4641 424.577 58.9453 425.826 59.1723 427.382L59.4641 429.716C59.7235 431.5 60.6151 431.905 62.139 430.932C66.8727 427.852 70.7958 429.165 73.9084 434.872Z"></path>
<path fill="#412D27" d="M89.7629 431.516L39.5239 461.718C7.9117 483.555 12.4833 549.746 19.6325 584.519C30.9481 639.346 63.0628 679.826 115.977 705.958C103.883 713.156 90.2817 715.961 75.1727 714.372L56.4972 710.433C54.9409 710.108 54.5842 710.627 55.4272 711.989C73.2597 740.878 94.9181 766.492 120.402 788.831C120.995 789.34 121.763 789.6 122.543 789.554C123.323 789.509 124.055 789.162 124.585 788.588C126.919 785.994 129.124 784.81 131.199 785.037C220.102 870.293 377.579 920.143 498.289 922.234C511.55 926.352 525.168 925.801 539.142 920.581L590.791 915.912C585.879 944.411 610.926 959.05 635.827 962.454C637.48 962.681 638.258 961.952 638.161 960.266C637.966 957.478 637.286 955.192 636.118 953.409C635.081 947.281 635.81 942.904 638.307 940.277C642.295 932.01 647.077 925.687 652.654 921.31C654.372 919.981 656.204 919.738 658.15 920.581C659.447 921.132 659.528 921.829 658.393 922.672C650.644 928.411 647.093 936.014 647.742 945.481C645.861 951.609 645.991 957.137 648.131 962.065C648.812 963.687 650.044 964.465 651.827 964.4L669.773 963.67C676.323 967.788 680.586 968.064 682.564 964.497C749.241 982.54 806.581 883.327 820.004 832.115C820.077 831.83 820.059 831.529 819.952 831.254C819.845 830.979 819.655 830.745 819.408 830.584C819.161 830.423 818.87 830.344 818.576 830.357C818.281 830.369 817.999 830.474 817.767 830.656C796.887 847.743 774.58 860.68 750.846 869.466C759.146 860.874 764.675 855.605 767.43 853.66C821.901 814.461 861.1 788.685 891.593 736.695C893.052 734.166 892.388 733.323 889.599 734.166C878.381 737.441 867.179 737.279 855.993 733.68C855.517 733.544 855.099 733.254 854.806 732.856C854.512 732.457 854.359 731.973 854.37 731.478C854.381 730.983 854.556 730.506 854.867 730.121C855.178 729.736 855.609 729.465 856.09 729.351C870.032 725.558 884.541 722.283 899.618 719.527C918.099 716.171 930.063 683.635 942.076 670.455C943.21 669.223 944.005 669.402 944.459 670.99C944.977 672.676 945.075 674.67 944.75 676.972C933.321 698.128 915.521 711.892 904.919 732.415C890.361 760.428 871.362 785.037 847.92 806.242C826.424 825.647 827.688 850.402 815.675 875.302C814.865 876.988 815.351 877.539 817.135 876.956C881.915 854.876 931.376 834.644 975.876 781.147C1016.97 728.962 1027.62 661.312 986.819 606.453C987.467 605.124 987.37 603.275 986.527 600.909C986.138 599.806 985.49 599.044 984.582 598.623C982.961 597.942 982.409 598.428 982.928 600.082L984.874 606.307L952.629 618.222C958.336 611.543 966.068 606.096 975.828 601.881C976.271 601.69 976.66 601.389 976.956 601.008C977.252 600.627 977.446 600.178 977.52 599.704C977.593 599.231 977.543 598.748 977.374 598.303C977.206 597.858 976.924 597.466 976.557 597.164L958.076 581.309C956.585 580.045 955.612 580.369 955.158 582.282L944.215 628.581C935.267 650.661 925.929 672.206 908.275 688.742C897.429 698.906 862.17 729.594 848.212 725.023C845.845 724.277 845.78 723.337 848.017 722.202C926.172 682.76 951.559 606.356 948.057 522.413C947.814 516.431 946.404 515.264 942.465 511.519C921.13 491.352 903.46 470.975 889.453 450.386C887.313 447.241 887.994 446.414 891.496 447.906L904.627 453.401C903.914 458.2 904.935 461.604 907.691 463.614L960.8 512.005C961.148 512.322 961.417 512.715 961.586 513.155C961.755 513.594 961.819 514.066 961.772 514.534L957.298 568.275C957.168 569.961 957.752 571.307 959.049 572.312C967.122 578.731 978.746 583.984 985.165 590.55C1062.98 669.823 1013.08 790.193 930.257 842.766C919.558 849.575 903.817 858.053 883.034 868.202L842.278 881.09L812.855 886.537C812.114 886.672 811.413 886.975 810.806 887.421C810.2 887.868 809.703 888.447 809.353 889.114C789.219 926.595 760.265 954.397 722.493 972.522C686.925 973.754 662.9 973.365 650.417 971.355C620.604 966.54 592.153 964.108 587.095 932.253C586.803 930.437 585.75 929.659 583.934 929.918C530.89 937.7 477.912 937.992 424.998 930.794C423.247 930.567 422.42 931.329 422.517 933.08C423.133 944.492 416.892 952.809 403.793 958.029C341.25 983.027 269.952 994.845 224.139 934.344C206.728 911.356 194.359 886.083 187.031 858.523C172.927 841.275 150.312 820.086 119.187 794.959C93.1511 773.916 67.991 744.46 43.7064 706.591C43.4376 706.174 43.2831 705.696 43.2581 705.201C43.233 704.706 43.3381 704.212 43.5633 703.766C43.7884 703.321 44.126 702.939 44.543 702.659C44.9601 702.378 45.4426 702.208 45.9436 702.165L59.6584 701.046C61.9928 700.852 62.3333 699.928 60.6797 698.274C-1.13423 635.876 -7.50531 568.081 5.72316 483.7C6.46889 478.869 5.52864 475.497 2.9024 473.585C2.28837 473.138 1.79116 472.55 1.45302 471.87C1.11489 471.19 0.945801 470.439 0.960123 469.68C0.974445 468.921 1.17177 468.177 1.5353 467.51C1.89884 466.844 2.41786 466.275 3.04829 465.852C14.9474 457.876 27.8517 452.639 41.761 450.143C43.1552 449.884 43.2039 449.446 41.9069 448.83C40.837 448.311 39.3942 448.133 37.5785 448.295C40.8208 446.706 42.0366 444.485 41.2261 441.632L73.9082 434.872L93.6536 424.415L107.174 414.932C107.595 414.64 107.887 414.737 108.049 415.224C108.179 415.678 108.066 416.067 107.709 416.391C101.743 421.481 95.7611 426.523 89.7629 431.516ZM330.745 933.225C341.007 944.168 336.386 956.716 348.788 965.567C349.38 966.007 350.062 966.31 350.786 966.453C351.51 966.596 352.256 966.576 352.971 966.394L363.913 963.622C365.923 963.103 366.767 961.822 366.442 959.78L361.628 927.341C361.401 925.849 361.968 925.428 363.33 926.076C365.859 927.276 367.593 929.383 368.534 932.399C370.965 940.115 373.3 947.864 375.537 955.646C376.056 957.461 377.239 958.191 379.087 957.834C395.072 954.689 406.63 946.113 413.763 932.107C414.703 930.259 414.152 929.156 412.11 928.8C333.614 915.831 260.193 888.952 191.846 848.164C191.564 848.003 191.238 847.937 190.915 847.977C190.593 848.016 190.292 848.158 190.057 848.382C189.822 848.606 189.666 848.9 189.611 849.22C189.557 849.54 189.607 849.869 189.755 850.158C216.698 900.884 227.446 942.466 286.05 967.756C293.021 970.771 295.242 968.696 292.713 961.53L282.743 933.177C282.511 932.6 282.5 931.957 282.711 931.372C282.923 930.788 283.343 930.301 283.89 930.006C284.438 929.712 285.075 929.629 285.68 929.774C286.285 929.919 286.815 930.282 287.169 930.794C293.751 939.353 298.111 948.967 300.251 959.634C300.42 960.429 300.754 961.178 301.232 961.832C301.71 962.486 302.321 963.03 303.023 963.427C311.518 968.031 320.661 968.939 330.453 966.151C331.364 965.882 332.151 965.301 332.676 964.509C333.201 963.718 333.43 962.766 333.322 961.822L330.404 933.42C330.34 933.031 330.453 932.966 330.745 933.225Z"></path>
<path fill="#715337" d="M676.388 428.89C673.47 429.765 673.21 430.43 675.609 430.884C672.529 431.597 669.628 431.354 666.904 430.154L651.147 430.398C655.588 425.113 664.002 424.61 676.388 428.89Z"></path>
<path fill="#BDB3B0" d="M676.387 428.89C688.838 429.311 700.867 432.262 712.474 437.741C709.426 443.836 712.798 450.515 722.59 457.778C718.375 458.232 716.17 460.907 715.976 465.803C704.53 449.364 691.075 437.725 675.609 430.884C673.21 430.43 673.469 429.765 676.387 428.89Z"></path>
<path fill="#2E1E1B" d="M651.147 430.397L666.904 430.154C669.011 440.238 673.583 445.441 680.619 445.766C694.723 461.685 702.634 478.756 704.352 496.977C701.24 515.62 695.566 530.81 687.33 542.547C656.302 586.756 596.336 569.102 581.989 520.467C581.871 520.085 581.642 519.748 581.33 519.498C581.018 519.248 580.638 519.097 580.24 519.066C579.842 519.034 579.443 519.123 579.096 519.321C578.748 519.519 578.469 519.817 578.293 520.176C573.267 530.778 571.646 543.18 573.429 557.381C568.663 546.454 567.042 537.943 568.566 531.848C569.83 499.36 577.417 473.649 591.327 454.714C609.127 440.578 629.067 432.472 651.147 430.397Z"></path>
<path fill="#412D27" d="M666.904 430.154C669.627 431.354 672.529 431.597 675.609 430.884C691.075 437.725 704.53 449.364 715.975 465.803C740.292 509.914 744.475 573.916 697.543 606.161L658.587 612.143C709.702 606.112 731.927 560.591 724.584 513.27C724.357 500.398 721.422 487.899 715.781 475.773C715.068 474.281 713.981 473.13 712.522 472.32L707.902 469.888C706.411 469.077 705.195 467.975 704.255 466.581C697.9 456.951 690.021 450.013 680.618 445.766C673.583 445.441 669.011 440.238 666.904 430.154Z"></path>
<path fill="#FCE3D3" d="M89.7631 431.516C91.4491 434.661 94.0916 436.331 97.6905 436.525C99.1171 436.59 99.8142 437.336 99.7818 438.762L99.5872 445.377C99.5548 446.771 99.9763 448.035 100.852 449.17C111.162 462.399 115.442 482.533 124.342 497.756C125.153 499.117 125.428 500.593 125.169 502.181C123.483 512.394 125.542 521.797 131.345 530.389C131.658 530.858 132.119 531.209 132.655 531.386C133.191 531.563 133.77 531.556 134.301 531.366C134.832 531.176 135.285 530.814 135.586 530.337C135.888 529.861 136.021 529.297 135.966 528.735C135.803 527.276 136.209 525.574 137.181 523.629L137.716 546.049C137.781 547.995 138.77 549.032 140.683 549.162C169.021 551.204 194.262 561.045 216.406 578.683C217.521 579.574 218.848 580.145 220.248 580.336L224.917 580.92C225.274 580.693 225.744 581.147 226.328 582.282L219.762 582.428C219.112 582.438 218.489 582.689 218.02 583.131C217.551 583.573 217.27 584.173 217.233 584.811C216.779 595.38 212.353 603.356 203.956 608.739C202.367 609.744 201.119 611.073 200.211 612.726C190.809 629.521 175.456 637.984 154.155 638.113C152.242 638.146 151.107 638.794 150.75 640.059C150.264 642.037 151.042 643.026 153.085 643.026H155.565C155.686 643.01 155.81 643.018 155.928 643.049C156.046 643.081 156.157 643.136 156.254 643.21C156.351 643.285 156.433 643.378 156.494 643.484C156.555 643.59 156.595 643.707 156.611 643.828C156.627 643.949 156.619 644.073 156.587 644.191C156.555 644.309 156.501 644.42 156.426 644.517C156.352 644.614 156.259 644.696 156.153 644.757C156.047 644.818 155.93 644.858 155.808 644.874L130.373 652.169C117.436 610.684 107.028 580.968 114.761 531.313C115.02 529.627 114.631 528.119 113.594 526.79L97.7878 506.558C96.9123 505.391 95.7289 504.84 94.2375 504.905C90.0874 505.034 86.9099 503.3 84.7052 499.701C76.5347 486.213 69.0288 475.53 62.1876 467.651C58.232 463.112 53.9684 462.771 49.3968 466.63C48.489 467.408 47.5487 467.44 46.5761 466.727L39.5241 461.718L89.7631 431.516Z"></path>
<path fill="#BDA194" d="M712.474 437.741L724.973 444.258C724.195 444.42 723.563 444.647 723.076 444.939C721.682 445.782 721.65 446.657 722.979 447.565C747.847 464.587 763.945 487.753 771.273 517.063C771.486 517.897 771.886 518.672 772.442 519.329C772.998 519.986 773.695 520.509 774.483 520.857C777.141 522.024 779.265 521.862 780.854 520.37L789.413 555.63L782.264 595.121C781.972 596.775 781.048 597.942 779.492 598.623C770.154 602.805 766.15 602.481 767.479 597.65C778.989 573.236 777.401 544.477 762.713 511.373C752.273 487.834 738.899 469.969 722.59 457.778C712.798 450.516 709.426 443.837 712.474 437.741Z"></path>
<path fill="#836B44" d="M724.584 513.27C719.493 501.792 712.749 496.361 704.352 496.977C702.634 478.756 694.722 461.685 680.619 445.766C690.021 450.013 697.9 456.952 704.255 466.581C705.195 467.975 706.411 469.078 707.902 469.888L712.522 472.32C713.982 473.13 715.068 474.281 715.781 475.773C721.423 487.899 724.357 500.398 724.584 513.27Z"></path>
<path fill="#CCB4A7" d="M724.973 444.258C752.305 462.739 770.932 488.11 780.853 520.37C779.265 521.862 777.141 522.024 774.482 520.857C773.695 520.508 772.997 519.986 772.441 519.329C771.885 518.672 771.486 517.897 771.273 517.063C763.945 487.753 747.847 464.587 722.979 447.565C721.65 446.657 721.682 445.782 723.076 444.939C723.562 444.647 724.195 444.42 724.973 444.258Z"></path>
<path fill="#D9C6B9" d="M183.092 447.079C188.052 445.101 189.852 445.279 188.49 447.614C172.538 475.173 162.536 504.678 158.483 536.128C158.413 536.605 158.487 537.094 158.694 537.535C158.901 537.975 159.233 538.348 159.65 538.608L161.401 539.678L161.644 543.18L145.741 544.444C145.385 544.464 145.03 544.404 144.701 544.269C144.373 544.134 144.08 543.927 143.845 543.664C143.61 543.401 143.44 543.09 143.347 542.753C143.254 542.416 143.241 542.063 143.309 541.721L143.941 538.511C144.003 538.22 144.129 537.945 144.31 537.709C144.491 537.474 144.722 537.283 144.985 537.151C145.248 537.019 145.536 536.951 145.828 536.951C146.119 536.95 146.405 537.018 146.665 537.149L154.057 540.845C154.404 541.002 154.795 541.033 155.163 540.935C155.531 540.837 155.853 540.614 156.076 540.306C156.299 539.997 156.409 539.621 156.387 539.241C156.364 538.86 156.211 538.5 155.954 538.219L153.911 536.225C152.809 535.09 152.339 533.745 152.501 532.189C156.1 499.96 166.297 471.59 183.092 447.079Z"></path>
<path fill="#2E1E1B" d="M221.562 446.398L222.291 471.444C216.066 513.902 219.811 564.53 268.493 577.71C268.526 577.969 268.558 578.213 268.591 578.44C252.866 576.916 239.686 570.01 229.051 557.721C205.269 528.298 210.133 479.421 221.562 446.398Z"></path>
<path fill="#BDA194" d="M591.327 454.715C577.417 473.649 569.831 499.361 568.566 531.848C561.984 517.777 560.493 502.554 564.092 486.181L585.588 451.407C586.496 449.948 587.728 449.559 589.284 450.24C591.489 451.18 592.17 452.672 591.327 454.715Z"></path>
<path fill="#FDFAEE" d="M722.59 457.778C738.898 469.969 752.273 487.834 762.713 511.373C777.4 544.477 778.989 573.236 767.479 597.65L745.059 611.462C740.487 612.24 735.996 611.851 731.587 610.295C732.333 608.739 731.96 607.442 730.468 606.404C729.236 605.561 727.891 605.334 726.432 605.723C716.997 608.285 707.367 608.431 697.543 606.161C744.475 573.917 740.292 509.914 715.975 465.803C716.17 460.907 718.375 458.232 722.59 457.778Z"></path>
<path fill="#D9C6B9" d="M39.524 461.718L46.5759 466.727C47.5486 467.44 48.4888 467.408 49.3967 466.63C53.9683 462.771 58.2319 463.112 62.1875 467.651C69.0287 475.53 76.5345 486.213 84.705 499.701C86.9098 503.3 90.0872 505.034 94.2373 504.905C95.7288 504.84 96.9122 505.391 97.7876 506.558L113.594 526.79C114.631 528.119 115.02 529.627 114.761 531.313C107.028 580.968 117.436 610.684 130.372 652.169L142.385 680.96L153.96 704.013L131.929 700.705C130.372 700.478 128.865 700.657 127.406 701.24L115.977 705.958C63.0629 679.825 30.9482 639.345 19.6326 584.519C12.4834 549.745 7.9118 483.554 39.524 461.718Z"></path>
<path fill="#FAC759" d="M247.24 468.526C248.116 536.809 314.015 558.791 355.986 506.023C358.353 506.607 359.942 507.661 360.752 509.185C348.205 557.365 317.452 580.207 268.494 577.71C219.811 564.53 216.066 513.902 222.291 471.445L247.24 468.526Z"></path>
<path fill="#2E1E1B" d="M774.482 466.289C802.69 505.91 810.52 548.692 797.973 594.635C788.505 601.541 778.243 605.01 767.187 605.042C765.663 605.042 764.188 605.269 762.762 605.723L745.059 611.462L767.479 597.65C766.15 602.481 770.154 602.805 779.492 598.623C781.048 597.942 781.972 596.775 782.264 595.121L789.413 555.63C794.244 549.47 796.011 542.564 794.714 534.912C791.05 513.351 784.306 490.477 774.482 466.289Z"></path>
<path fill="#170F0A" d="M369.847 493.427C360.46 544.347 324.666 587.583 268.59 578.44C268.558 578.213 268.526 577.969 268.493 577.71C317.452 580.207 348.205 557.365 360.752 509.185L366.005 492.26C366.491 490.768 367.253 490.606 368.29 491.774C368.712 492.227 369.231 492.779 369.847 493.427Z"></path>
<path fill="#170F0A" d="M415.563 505.585C410.829 506.396 410.651 505.78 415.028 503.737L435.406 494.254C435.696 494.08 436.043 494.028 436.372 494.11C436.7 494.192 436.982 494.401 437.156 494.691C437.33 494.982 437.382 495.329 437.3 495.657C437.218 495.986 437.009 496.268 436.719 496.442C430.558 501.176 423.506 504.224 415.563 505.585Z"></path>
<path fill="#FAC759" d="M704.352 496.977C712.75 496.361 719.494 501.792 724.584 513.27C731.928 560.591 709.702 606.112 658.588 612.143L656.351 613.262C616.698 611.089 589.057 592.462 573.429 557.381C571.646 543.18 573.267 530.778 578.293 520.176C578.469 519.817 578.749 519.519 579.096 519.322C579.443 519.124 579.842 519.035 580.24 519.066C580.638 519.098 581.018 519.248 581.33 519.498C581.642 519.748 581.871 520.086 581.989 520.468C596.336 569.102 656.302 586.756 687.33 542.548C695.566 530.811 701.24 515.62 704.352 496.977Z"></path>
<path fill="#2E1E1B" d="M503.007 504.905C502.618 504.191 502.797 503.981 503.542 504.272L511.47 507.045C511.88 507.18 512.226 507.462 512.441 507.836C512.656 508.211 512.725 508.652 512.634 509.075C512.544 509.497 512.3 509.871 511.951 510.125C511.601 510.378 511.17 510.494 510.74 510.449C507.628 510.222 505.05 508.374 503.007 504.905Z"></path>
<path fill="#4E423D" d="M467.212 583.06C469.028 584.94 468.25 584.632 464.878 582.136C482.84 577.759 498.63 571.306 512.247 562.779C531.02 532.432 446.591 533.064 433.46 535.009C419.324 538.446 410.554 543.942 407.149 551.496C406.241 547.054 407.587 543.909 411.186 542.061C442.052 526.304 474.005 525.607 507.044 539.97C517.062 544.315 519.915 551.675 515.603 562.05C515.002 563.504 513.946 564.731 512.588 565.551C499.035 573.657 483.91 579.493 467.212 583.06Z"></path>
<path fill="#FCD9C8" d="M512.248 562.779C507.417 558.402 499.651 557.251 488.952 559.326L445.181 550.913C439.961 546.6 436.054 541.299 433.46 535.009C446.592 533.064 531.02 532.432 512.248 562.779Z"></path>
<path fill="#FBA2B7" d="M433.46 535.009C436.054 541.299 439.961 546.601 445.181 550.913C445.57 553.539 448.261 555.776 453.254 557.624C453.027 562.52 453.935 565.292 455.978 565.941C458.295 566.682 460.777 566.737 463.124 566.098C465.472 565.46 467.584 564.155 469.206 562.342C469.725 561.791 469.433 560.234 468.331 557.673C477.733 563.898 484.607 564.449 488.952 559.327C499.651 557.251 507.416 558.402 512.247 562.779C498.63 571.307 482.84 577.759 464.878 582.136C462.089 584.73 457.323 585.07 450.579 583.157C434.173 575.603 419.697 565.049 407.149 551.496C410.553 543.942 419.324 538.446 433.46 535.009Z"></path>
<path fill="#C6626B" d="M445.181 550.913L488.952 559.326C484.607 564.449 477.734 563.898 468.331 557.673L453.255 557.624C448.261 555.776 445.57 553.539 445.181 550.913Z"></path>
<path fill="#FCD9C8" d="M468.331 557.673C469.433 560.234 469.725 561.79 469.206 562.342C467.584 564.155 465.472 565.46 463.125 566.098C460.777 566.737 458.295 566.682 455.978 565.941C453.935 565.292 453.027 562.52 453.254 557.624L468.331 557.673Z"></path>
<path fill="#FBF1E1" d="M952.629 618.222L944.216 628.581L955.158 582.282C955.612 580.369 956.585 580.044 958.076 581.309L976.557 597.164C976.925 597.466 977.206 597.858 977.375 598.303C977.543 598.748 977.593 599.23 977.52 599.704C977.447 600.178 977.253 600.627 976.956 601.008C976.66 601.389 976.271 601.69 975.828 601.881C966.069 606.096 958.336 611.543 952.629 618.222Z"></path>
<path fill="#FBF1E1" d="M226.327 582.282C232.163 584.746 233.72 589.706 230.996 597.164C230.459 598.715 230.425 600.384 230.899 601.93C234.206 613.018 230.542 621.043 219.908 626.004C218.546 626.652 217.541 627.673 216.892 629.068C208.479 647.111 170.593 664.911 142.385 680.96L130.372 652.169L155.808 644.874C155.929 644.858 156.046 644.818 156.152 644.757C156.258 644.696 156.351 644.614 156.426 644.517C156.5 644.42 156.555 644.309 156.587 644.191C156.618 644.073 156.626 643.949 156.61 643.828C156.594 643.707 156.555 643.59 156.493 643.484C156.432 643.378 156.351 643.285 156.254 643.21C156.157 643.136 156.046 643.081 155.928 643.049C155.809 643.018 155.686 643.01 155.565 643.026H153.084C151.042 643.026 150.264 642.037 150.75 640.059C151.107 638.795 152.241 638.146 154.154 638.114C175.456 637.984 190.808 629.521 200.211 612.727C201.119 611.073 202.367 609.744 203.956 608.739C212.353 603.356 216.779 595.38 217.233 584.811C217.27 584.173 217.551 583.574 218.02 583.132C218.489 582.69 219.111 582.438 219.762 582.428L226.327 582.282Z"></path>
<path fill="#170F0A" d="M450.579 583.157C457.323 585.07 462.089 584.729 464.878 582.136C468.25 584.632 469.028 584.94 467.212 583.06C470.422 620.184 486.196 648.635 514.533 668.412C515.376 669.028 515.214 669.742 514.047 670.552C513.106 671.233 512.182 671.233 511.275 670.552L482.726 649.64C483.018 647.629 482.661 645.749 481.656 643.998C481.04 642.961 479.516 642.717 477.085 643.269L465.024 603.437C464.885 602.994 464.628 602.598 464.279 602.292C463.931 601.986 463.504 601.781 463.048 601.701C462.591 601.62 462.12 601.667 461.688 601.836C461.256 602.005 460.879 602.29 460.598 602.659L434.384 636.703L427.429 641.08C425.452 641.502 424.56 642.037 424.754 642.685C412.79 648.975 400.551 653.482 388.036 656.205C386.771 656.497 385.847 656.4 385.264 655.913C384.842 655.589 384.566 655.152 384.437 654.6C384.113 653.433 384.518 652.687 385.653 652.363C419.08 641.956 440.723 618.887 450.579 583.157Z"></path>
<path fill="#FCD9C8" d="M797.973 594.635C800.34 595.996 801.215 598.412 800.599 601.881C800.275 603.535 800.777 604.896 802.107 605.966L809.548 612.094C810.65 613.002 811.915 613.343 813.341 613.116L872.626 603.681C873.729 603.518 874.247 603.989 874.182 605.091C874.15 605.675 874.134 606.226 874.134 606.745C874.166 607.523 873.777 607.977 872.967 608.106L845.051 612.289C843.527 612.516 842.684 613.391 842.522 614.915L841.695 623.231C841.599 624.134 841.198 624.976 840.56 625.614C839.922 626.252 839.086 626.647 838.193 626.733L824.868 628.046C823.279 628.176 822.695 629.019 823.117 630.575C825.548 639.962 830.995 645.652 841.403 645.944C866.207 646.592 890.459 648.278 914.16 651.002C914.869 651.095 915.529 651.415 916.04 651.915C916.552 652.415 916.888 653.067 916.998 653.774C917.107 654.481 916.985 655.204 916.648 655.835C916.312 656.467 915.78 656.972 915.132 657.275C910.204 659.545 906.378 659.14 903.655 656.059L799.918 650.369C799.059 650.323 798.207 650.543 797.478 650.999C796.749 651.455 796.178 652.125 795.843 652.917C795.508 653.709 795.425 654.585 795.606 655.426C795.787 656.267 796.223 657.032 796.854 657.616L801.475 661.847C801.727 662.09 801.915 662.392 802.02 662.726C802.125 663.061 802.145 663.416 802.077 663.759C802.01 664.103 801.856 664.424 801.632 664.694C801.408 664.963 801.12 665.171 800.794 665.3C787.614 670.163 779.395 677.313 765.242 677.75C735.77 678.577 726.724 676.437 702.212 660.339C689.908 652.217 683.196 630.527 693.166 618.611C693.426 618.287 693.491 617.914 693.361 617.493C693.231 617.104 693.102 616.715 692.972 616.325C692.81 615.742 692.988 615.353 693.507 615.158C705.925 610.36 718.618 608.738 731.587 610.295C735.997 611.851 740.487 612.24 745.059 611.462L762.762 605.723C764.188 605.269 765.664 605.042 767.187 605.042C778.244 605.01 788.505 601.541 797.973 594.635Z"></path>
<path fill="#9B6364" d="M986.819 606.453C986.17 606.42 985.522 606.372 984.873 606.307L982.928 600.082C982.409 598.428 982.961 597.942 984.582 598.622C985.49 599.044 986.138 599.806 986.527 600.908C987.37 603.275 987.467 605.123 986.819 606.453Z"></path>
<path fill="#D57784" d="M477.085 643.269C477.798 643.561 478.528 643.853 479.273 644.144L434.384 636.703L460.598 602.66C460.879 602.29 461.256 602.006 461.688 601.837C462.12 601.668 462.591 601.621 463.048 601.701C463.505 601.781 463.931 601.986 464.279 602.292C464.628 602.598 464.885 602.995 465.024 603.438L477.085 643.269Z"></path>
<path fill="#FCECDC" d="M697.543 606.161C707.367 608.431 716.997 608.285 726.432 605.723C727.891 605.334 729.237 605.561 730.469 606.404C731.96 607.442 732.333 608.739 731.587 610.295C718.618 608.739 705.925 610.36 693.507 615.158C692.988 615.353 692.81 615.742 692.972 616.326C693.101 616.715 693.231 617.104 693.361 617.493C693.49 617.914 693.426 618.287 693.166 618.611C683.196 630.527 689.908 652.218 702.212 660.339C726.724 676.437 735.77 678.577 765.242 677.751C779.394 677.313 787.614 670.163 800.793 665.3C801.119 665.171 801.408 664.963 801.632 664.694C801.856 664.425 802.009 664.103 802.077 663.76C802.145 663.416 802.125 663.061 802.02 662.726C801.915 662.392 801.727 662.09 801.474 661.847L796.854 657.616C796.223 657.032 795.787 656.267 795.606 655.426C795.425 654.586 795.507 653.709 795.842 652.917C796.177 652.125 796.748 651.455 797.478 650.999C798.207 650.543 799.059 650.324 799.918 650.369L903.655 656.06C890.75 660.469 885.238 668.137 887.119 679.064C887.476 681.171 886.616 682.517 884.541 683.1L874.717 685.872C874.129 686.044 873.601 686.377 873.194 686.835C872.786 687.293 872.516 687.856 872.415 688.461C872.313 689.065 872.384 689.686 872.619 690.252C872.855 690.818 873.245 691.306 873.745 691.66L878.559 695.113C879.921 696.085 880.002 697.139 878.803 698.274C873.907 702.91 869.951 703.235 866.936 699.247C866.125 698.177 865.153 697.982 864.018 698.663L855.555 703.818C854.226 704.629 852.783 705.148 851.227 705.375C841.76 706.769 824.3 709.914 798.848 714.81C746.566 724.828 652.703 705.375 655.572 634.272C655.669 632.391 656.35 630.77 657.615 629.408L666.223 619.973C668.266 617.736 667.779 616.585 664.764 616.52C659.479 616.358 656.674 615.272 656.35 613.262L658.587 612.143L697.543 606.161Z"></path>
<path fill="#FBA2B7" d="M434.384 636.703L479.274 644.144C475.124 658.443 466.483 666.208 453.352 667.44C451.763 667.602 450.288 667.245 448.926 666.37C438.68 659.918 431.515 651.488 427.43 641.08L434.384 636.703Z"></path>
<path fill="#2E1E1B" d="M427.43 641.08C431.515 651.488 438.68 659.918 448.926 666.37C450.288 667.245 451.763 667.602 453.351 667.44C466.483 666.208 475.123 658.442 479.273 644.144C478.528 643.852 477.798 643.56 477.085 643.269C479.517 642.717 481.04 642.961 481.657 643.998C482.662 645.749 483.018 647.629 482.726 649.64C478.122 652.071 474.994 655.719 473.34 660.582C472.821 662.171 471.881 663.436 470.519 664.376C449.218 679.55 434.238 660.582 424.755 642.685C424.56 642.036 425.452 641.502 427.43 641.08Z"></path>
<path fill="#CEC3B9" d="M944.75 676.972C946.728 699.636 945.042 722.38 939.692 745.206C939.303 746.924 939.984 747.929 941.735 748.221C954.964 750.264 971.84 749.534 982.539 757.51C984.031 758.613 984.176 759.861 982.977 761.255C977.4 767.675 975.033 774.305 975.876 781.146C931.376 834.644 881.915 854.876 817.135 876.956C815.351 877.539 814.865 876.988 815.675 875.302C827.688 850.401 826.424 825.646 847.92 806.241C871.362 785.037 890.361 760.428 904.919 732.415C915.521 711.891 933.321 698.128 944.75 676.972Z"></path>
<path fill="#CEC3B9" d="M153.96 704.013C237.465 824.382 371.889 898.89 515.165 920.532C508.454 919.365 502.829 919.932 498.289 922.234C377.58 920.143 220.102 870.293 131.199 785.037L72.4007 719.527C71.2334 718.198 71.2658 716.917 72.4979 715.685C73.1464 715.037 74.038 714.599 75.1728 714.372C90.2818 715.961 103.883 713.156 115.977 705.958L127.406 701.241C128.865 700.657 130.372 700.479 131.929 700.706L153.96 704.013Z"></path>
<path fill="#4E423D" d="M75.1726 714.372C74.0378 714.599 73.1462 715.037 72.4977 715.685C71.2657 716.917 71.2332 718.198 72.4005 719.527L131.199 785.037C129.124 784.81 126.919 785.994 124.585 788.587C124.055 789.162 123.323 789.509 122.543 789.554C121.762 789.599 120.995 789.34 120.402 788.831C94.918 766.491 73.2597 740.877 55.4272 711.989C54.5842 710.627 54.9408 710.108 56.4971 710.432L75.1726 714.372Z"></path>
<path fill="#CEC3B9" d="M682.564 964.497L693.604 960.947L710.869 958.758C712.393 958.564 713.787 958.045 715.052 957.202C731.684 946.211 745.594 943.049 748.56 920.435C750.457 905.893 738.931 899.473 726.432 898.355C726.001 898.325 725.59 898.169 725.248 897.907C724.906 897.645 724.648 897.287 724.504 896.876C724.36 896.465 724.337 896.019 724.438 895.591C724.538 895.163 724.758 894.772 725.07 894.464L750.846 869.466C774.58 860.679 796.887 847.743 817.767 830.656C817.999 830.474 818.282 830.369 818.576 830.356C818.87 830.344 819.161 830.423 819.408 830.584C819.655 830.745 819.845 830.979 819.952 831.254C820.059 831.528 820.077 831.83 820.004 832.115C806.581 883.327 749.241 982.54 682.564 964.497Z"></path>
<path fill="#CEC3B9" d="M330.404 933.42L333.322 961.822C333.43 962.766 333.201 963.718 332.676 964.509C332.151 965.301 331.364 965.882 330.453 966.151C320.661 968.939 311.518 968.031 303.023 963.427C302.321 963.03 301.71 962.486 301.232 961.832C300.754 961.178 300.42 960.429 300.251 959.634C298.111 948.967 293.75 939.353 287.169 930.794C286.815 930.282 286.285 929.919 285.68 929.774C285.075 929.629 284.438 929.712 283.89 930.006C283.343 930.301 282.923 930.788 282.711 931.372C282.5 931.957 282.511 932.6 282.743 933.177L292.713 961.53C295.242 968.696 293.021 970.771 286.05 967.756C227.446 942.466 216.698 900.884 189.755 850.158C189.607 849.869 189.557 849.54 189.611 849.22C189.666 848.9 189.822 848.606 190.057 848.382C190.292 848.158 190.593 848.016 190.915 847.977C191.238 847.937 191.564 848.003 191.846 848.164C260.193 888.952 333.614 915.831 412.11 928.8C414.152 929.156 414.703 930.259 413.763 932.107C406.63 946.114 395.072 954.689 379.087 957.834C377.239 958.191 376.056 957.461 375.537 955.646C373.3 947.864 370.965 940.115 368.534 932.399C367.593 929.383 365.859 927.276 363.33 926.076C361.968 925.428 361.401 925.849 361.627 927.341L366.442 959.78C366.766 961.822 365.923 963.103 363.913 963.622L352.971 966.394C352.256 966.576 351.51 966.596 350.786 966.453C350.062 966.31 349.38 966.007 348.788 965.567C336.386 956.716 341.007 944.168 330.745 933.226C330.453 932.966 330.34 933.031 330.404 933.42Z"></path>
<path fill="#B4AAA6" d="M187.031 858.523C194.359 886.083 206.728 911.356 224.139 934.344C269.952 994.845 341.25 983.027 403.793 958.029C416.892 952.809 423.133 944.492 422.517 933.079C422.42 931.329 423.247 930.567 424.998 930.794C477.912 937.991 530.89 937.7 583.934 929.918C585.75 929.659 586.803 930.437 587.095 932.253C592.153 964.108 620.604 966.54 650.417 971.354C662.9 973.365 686.925 973.754 722.493 972.522C731.798 976.023 737.294 982.427 738.98 991.732C565.486 1011.12 392.089 1009.22 218.789 986.042C170.204 979.525 78.7229 963.865 44.9709 926.076C43.9679 924.977 43.3977 923.543 43.366 922.039C43.0417 910.497 48.4239 901.662 59.5125 895.534C98.0307 874.232 140.537 861.895 187.031 858.523Z"></path>
<path fill="#CEC3B9" d="M883.034 868.201C909.815 869.466 934.035 877.458 955.693 892.178C1020.86 936.532 869.562 971.063 850.108 974.126C847.612 964.724 847.92 951.658 851.032 934.927C853.01 924.293 852.735 910.124 850.206 892.421C850.1 891.699 849.825 891.01 849.403 890.41C848.981 889.81 848.423 889.317 847.774 888.968C844.629 887.282 842.797 884.656 842.278 881.09L883.034 868.201Z"></path>
<path fill="#412D27" d="M604.993 918.538L601.977 933.614C599.156 935.981 597.535 934.879 597.114 930.307C596.579 924.471 603.096 910.221 604.652 903.412C617.945 886.877 634.335 879.031 653.821 879.874C656.707 880.003 658.733 881.171 659.9 883.375C660.549 884.64 660.176 885.191 658.782 885.029C635.081 882.565 617.151 893.734 604.993 918.538Z"></path>
<path fill="#BDB3B0" d="M842.279 881.09C842.797 884.656 844.629 887.282 847.774 888.968C848.423 889.317 848.981 889.81 849.404 890.41C849.826 891.01 850.101 891.698 850.206 892.421C852.735 910.124 853.011 924.293 851.033 934.927C847.92 951.657 847.612 964.724 850.109 974.126C813.341 983.043 776.299 988.911 738.98 991.732C737.294 982.427 731.798 976.023 722.493 972.522C760.265 954.397 789.219 926.595 809.353 889.114C809.703 888.447 810.2 887.868 810.807 887.421C811.414 886.975 812.114 886.672 812.855 886.537L842.279 881.09Z"></path>
<path fill="#BDA194" d="M604.652 903.413C603.096 910.221 596.579 924.471 597.114 930.307C597.536 934.879 599.157 935.981 601.977 933.614C610.732 943.114 622.112 949.712 636.119 953.409C637.286 955.192 637.967 957.478 638.161 960.266C638.258 961.952 637.48 962.681 635.827 962.454C610.926 959.05 585.88 944.411 590.792 915.912C593.126 907.871 597.746 903.705 604.652 903.413Z"></path>
<path fill="#D7CAB8" d="M604.993 918.538L638.307 940.277C635.811 942.904 635.081 947.281 636.119 953.409C622.112 949.712 610.732 943.114 601.978 933.614L604.993 918.538Z"></path>
<path fill="#715337" d="M515.165 920.532L539.142 920.58C525.168 925.8 511.55 926.351 498.289 922.234C502.829 919.932 508.454 919.364 515.165 920.532Z"></path>
<path fill="#D7CAB8" d="M694.528 932.739L674.199 959.488C673.291 959.456 672.529 959.391 671.913 959.293C670.098 958.969 669.757 958.094 670.892 956.667C676.923 949.113 680.83 940.245 682.613 930.064L694.528 932.739Z"></path>
<path fill="#CEC3B9" d="M682.613 930.064C680.829 940.245 676.923 949.113 670.892 956.667C669.757 958.094 670.098 958.969 671.913 959.293C672.529 959.391 673.291 959.456 674.199 959.488L669.773 963.67L651.827 964.4C650.044 964.465 648.812 963.687 648.131 962.066C645.991 957.137 645.862 951.609 647.742 945.481L648.034 948.983C648.105 950.053 648.562 951.061 649.32 951.819C650.078 952.578 651.086 953.035 652.156 953.106C653.225 953.178 654.285 952.858 655.137 952.207C655.989 951.556 656.576 950.618 656.788 949.567C658.117 943.471 661.732 941.007 667.633 942.174C669.125 942.466 670.422 942.061 671.524 940.958L682.613 930.064Z"></path>
<path fill="#4E423D" d="M694.528 932.739C698.289 934.23 700.283 936.662 700.51 940.034C700.802 945.141 694.82 953.749 693.604 960.947L682.564 964.497C680.586 968.064 676.323 967.788 669.773 963.67L674.199 959.488L694.528 932.739Z"></path>
</g>
<defs>
<clipPath id="clip0_2_4795">
<rect fill="white" height="1024" width="1024"></rect>
</clipPath>
</defs>
</svg>
