<?xml version="1.0" standalone="no"?><!DOCTYPE svg PUBLIC "-//W3C//DTD SVG 1.1//EN" "http://www.w3.org/Graphics/SVG/1.1/DTD/svg11.dtd"><svg t="1698671970670" class="icon" viewBox="0 0 1024 1024" version="1.1" xmlns="http://www.w3.org/2000/svg" p-id="36343" width="16" height="16" xmlns:xlink="http://www.w3.org/1999/xlink"><path d="M316.8 739.2c57.6 0 108.8 35.2 128 89.6H1024v96H441.6c-28.8 70.4-105.6 102.4-176 73.6-35.2-12.8-60.8-41.6-73.6-73.6H0v-96h188.8c19.2-54.4 70.4-89.6 128-89.6z m0 96c-22.4 0-38.4 19.2-38.4 38.4 0 22.4 19.2 38.4 38.4 38.4 22.4 0 38.4-19.2 38.4-38.4 0-22.4-16-38.4-38.4-38.4z m390.4-457.6c57.6 0 108.8 35.2 128 89.6H1024v96H832c-28.8 70.4-105.6 102.4-176 73.6-35.2-12.8-60.8-41.6-73.6-73.6H0v-96h579.2c19.2-54.4 70.4-89.6 128-89.6z m0 96c-22.4 0-38.4 19.2-38.4 38.4s19.2 38.4 38.4 38.4c22.4 0 38.4-19.2 38.4-38.4 3.2-22.4-16-38.4-38.4-38.4zM316.8 16c57.6 0 108.8 35.2 128 89.6H1024v96H441.6c-28.8 70.4-105.6 102.4-176 73.6-35.2-12.8-60.8-41.6-73.6-73.6H0v-96h188.8C208 51.2 259.2 16 316.8 16z m0 96c-22.4 0-38.4 19.2-38.4 38.4 0 22.4 19.2 38.4 38.4 38.4 22.4 0 38.4-19.2 38.4-38.4 0-22.4-16-38.4-38.4-38.4z" fill="#888888" p-id="36344"></path></svg>