<?xml version="1.0" standalone="no"?><!DOCTYPE svg PUBLIC "-//W3C//DTD SVG 1.1//EN" "http://www.w3.org/Graphics/SVG/1.1/DTD/svg11.dtd"><svg t="1699080981208" class="icon" viewBox="0 0 1024 1024" version="1.1" xmlns="http://www.w3.org/2000/svg" p-id="14330" xmlns:xlink="http://www.w3.org/1999/xlink" width="16" height="16"><path d="M512 512m-512 0a512 512 0 1 0 1024 0 512 512 0 1 0-1024 0Z" fill="#3F7FF7" p-id="14331"></path><path d="M716.64 735.264h-380.032a171.744 171.744 0 0 1-175.424-167.424 171.936 171.936 0 0 1 157.888-167.424 214.88 214.88 0 0 1 192.96-111.648 225.184 225.184 0 0 1 141.056 48 209.024 209.024 0 0 1 75.296 119.296 145.088 145.088 0 0 1 134.4 139.52 141.472 141.472 0 0 1-146.144 139.68z m-384.352-199.072a48.384 48.384 0 0 0 0 96.768h359.456a48.384 48.384 0 0 0 0-96.768z" fill="#FFFFFF" p-id="14332"></path></svg>