<?xml version="1.0" standalone="no"?><!DOCTYPE svg PUBLIC "-//W3C//DTD SVG 1.1//EN" "http://www.w3.org/Graphics/SVG/1.1/DTD/svg11.dtd"><svg t="1699080829702" class="icon" viewBox="0 0 1067 1024" version="1.1" xmlns="http://www.w3.org/2000/svg" p-id="8321" xmlns:xlink="http://www.w3.org/1999/xlink" width="16.671875" height="16"><path d="M0 0h1024v1024H0z" fill="#D8D8D8" fill-opacity="0" p-id="8322"></path><path d="M0.96 579.2c0 11.52 6.528 23.04 19.52 32.512l7.04 4.544 419.776 242.368c17.6 10.176 40.704 15.232 63.744 15.232l11.52-0.384c19.008-1.408 37.44-6.4 52.032-14.848l417.024-242.368c17.408-10.112 26.112-23.36 26.176-36.608l-0.32 94.4c0 11.328-6.4 22.72-19.2 32.064l-6.912 4.48-417.024 242.368c-14.592 8.512-33.024 13.44-52.096 14.848l-11.52 0.448c-23.04 0-46.08-5.12-63.68-15.296L27.328 710.656c-17.792-10.24-26.624-23.68-26.624-37.12l0.256-94.4z m0-167.232c0 11.52 6.528 23.04 19.52 32.512l7.04 4.608L237.44 570.24l209.856 121.152c17.6 10.24 40.704 15.296 63.744 15.296l11.52-0.448c19.008-1.408 37.44-6.4 52.032-14.848l417.024-242.304c17.408-10.112 26.112-23.36 26.176-36.608l-0.32 94.336c0 11.392-6.4 22.72-19.2 32.128l-6.912 4.48-417.024 242.368c-14.592 8.448-33.024 13.44-52.096 14.848l-11.52 0.384c-23.04 0-46.08-5.12-63.68-15.232L27.328 543.36c-17.792-10.24-26.624-23.68-26.624-37.12l0.256-94.336zM512.64 0.128c19.2 0.768 38.016 5.376 52.736 13.888l427.136 246.592c25.92 14.976 31.232 37.376 15.808 55.296L1004.352 320l-0.128 57.728a59.392 59.392 0 0 1-5.952 4.736h-0.064v3.008l-5.376 0.64 0.832-57.792 0.256-0.064v-0.512l2.56-1.792-3.584 2.368-0.128 57.728L598.4 615.232l-0.064 17.408c-6.272 1.92-12.864 3.648-19.84 5.184l-0.064 6.784-0.064 0.64v3.328l-16.704 0.832v2.944l-16.128 0.128-16.128-0.064a1934.912 1934.912 0 0 1-31.104-0.448l0.128-9.408h-0.064v3.648a140.608 140.608 0 0 1-16.256-2.304l-0.064-2.816-1.664-0.192a1044.352 1044.352 0 0 1-16.96-1.792l0.576-58.304a99.2 99.2 0 0 1-1.728-0.64l1.28 0.512-0.128 57.728a90.24 90.24 0 0 1-11.904-5.76L24.384 386.048C8.128 376.64 0 364.288 0 352l0.192-57.792v1.28l0.064-3.456c0.96-11.456 8.96-22.656 23.936-31.36L448.512 13.952c14.656-8.512 33.408-13.12 52.608-13.888zM590.272 354.56l-256.576 39.808 188.608 108.928L590.272 354.56z m429.568-59.52l-0.128 8.832 2.304-0.576a60.224 60.224 0 0 0 8.32-3.136c3.2-1.536 5.12-3.2 5.568-4.736l-0.576 20.032v0.32l8.192-1.28a394.24 394.24 0 0 0 24.704-4.992l-1.216 57.792a355.712 355.712 0 0 1-15.808 3.328l-8.896 1.6 1.088-52.288-1.088 52.288c-7.68 1.28-16 2.56-24.704 3.712l-13.44 1.792 1.28-57.728 0.448-0.128 7.104-0.896 0.128-9.472a43.84 43.84 0 0 0 3.328-2.368l0.128-2.304 0.192-0.128 2.88-0.768 0.192-8.512V295.04z m-309.952-98.496L555.2 286.464l155.648 89.856 154.688-89.856-155.648-89.92z m-426.048 12.288l-12.672 0.256c-53.376 2.944-92.288 30.4-87.04 61.312 2.304 13.44 12.736 25.408 28.16 34.368 19.84 11.456 48 17.92 77.952 16.192 53.376-2.944 92.288-30.4 87.04-61.312-2.304-13.44-12.736-25.408-28.16-34.368-19.84-11.456-48-17.92-77.952-16.192z m283.52-132.928l-71.68 42.432-72.192-23.04 23.872 53.504-67.584 45.632 86.4-9.344 30.4 51.2 29.568-59.264 86.4-14.016-68.16-27.264 23.04-59.84z" fill="#BF0000" p-id="8323"></path></svg>