<?xml version="1.0" standalone="no"?><!DOCTYPE svg PUBLIC "-//W3C//DTD SVG 1.1//EN" "http://www.w3.org/Graphics/SVG/1.1/DTD/svg11.dtd"><svg t="1699012119827" class="icon" viewBox="0 0 1024 1024" version="1.1" xmlns="http://www.w3.org/2000/svg" p-id="35509" xmlns:xlink="http://www.w3.org/1999/xlink" width="16" height="16"><path d="M811.5 575.9c13.9-5 23-19.1 21-34.4-11.6-87.3-59.6-166.7-131.7-217.9-9.1-6.5-20.4-7.5-30.1-3.7 4.1-13.8 6.3-28.4 6.3-43.5 0-85-69.1-154.1-154.1-154.1s-154.1 69.1-154.1 154.1 69.1 154.1 154.1 154.1c54.1 0 101.7-28 129.2-70.2 2.1 6.1 6 11.5 11.7 15.5 57.7 40.9 96.1 104.4 105.3 174.1 1.1 8.1 5.1 15.1 10.8 20-3.5-0.3-6.9-0.4-10.5-0.4-79.2 0-143.6 64.4-143.6 143.6 0 34.6 12.3 66.4 32.8 91.2-6.7-1.1-13.9 0-20.3 3.5-37.1 20.3-79.3 31-121.9 31-42.5 0-84.5-10.6-121.5-30.8-15.5-8.4-35-2.7-43.4 12.8-8.4 15.5-2.7 35 12.8 43.4 46.4 25.2 99 38.5 152.1 38.5 53.3 0 106.1-13.4 152.6-38.8 12.8-7 18.9-21.4 15.9-34.9 23.7 17.4 53 27.6 84.6 27.6 79.2 0 143.6-64.4 143.6-143.6-0.1-64.4-42.9-119.1-101.6-137.1zM522.8 366.5c-49.7 0-90.1-40.4-90.1-90.1 0-49.7 40.4-90.1 90.1-90.1 49.7 0 90.1 40.4 90.1 90.1 0.1 49.7-40.4 90.1-90.1 90.1z m246.6 426.3c-43.9 0-79.6-35.7-79.6-79.6s35.7-79.6 79.6-79.6 79.6 35.7 79.6 79.6-35.7 79.6-79.6 79.6z" p-id="35510"></path><path d="M396 713.2c0-78.9-63.9-143.1-142.7-143.6 5.4-4.9 9.2-11.7 10.2-19.5 9.2-69.5 47.4-132.9 104.8-173.9 14.4-10.3 17.7-30.2 7.5-44.6-10.3-14.4-30.2-17.7-44.6-7.5-35.4 25.3-64.8 56.9-87.4 93.9-23.2 38-37.9 79.6-43.7 123.7-1.8 13.6 5.2 26.2 16.5 32.4-61.9 15.9-107.8 72.3-107.8 139.1 0 79.2 64.4 143.6 143.6 143.6 79.2 0 143.6-64.5 143.6-143.6z m-143.6 79.6c-43.9 0-79.6-35.7-79.6-79.6s35.7-79.6 79.6-79.6 79.6 35.7 79.6 79.6-35.7 79.6-79.6 79.6z" p-id="35511"></path></svg>