<?xml version="1.0" standalone="no"?><!DOCTYPE svg PUBLIC "-//W3C//DTD SVG 1.1//EN" "http://www.w3.org/Graphics/SVG/1.1/DTD/svg11.dtd"><svg t="1699251881989" class="icon" viewBox="0 0 1024 1024" version="1.1" xmlns="http://www.w3.org/2000/svg" p-id="6902" xmlns:xlink="http://www.w3.org/1999/xlink" width="16" height="16"><path d="M304.810667 587.434667s-108.885333 26.624-157.354667-57.002667-54.613333-212.309333 9.557333-246.101333 171.690667-56.661333 204.117334-34.133334l-6.144-91.477333S418.133333 0.341333 518.485333 21.845333s150.528 42.325333 164.864 95.232 22.528 112.298667 22.528 112.298667l86.698667 19.797333 87.722667 40.618667 49.152 128.341333-15.018667 51.882667-83.626667 98.986667-76.458666 14.336-449.536 4.096z" fill="#D4EADC" p-id="6903"></path><path d="M749.568 604.501333c-9.216 0-17.066667-7.509333-17.066667-17.066666 0-9.216 7.509333-17.066667 17.066667-17.066667 87.04 0 157.696-70.656 157.696-157.696a157.764267 157.764267 0 0 0-206.848-149.845333c-6.144 2.048-12.629333 0.341333-17.066667-4.096s-6.144-10.922667-4.437333-17.066667a157.764267 157.764267 0 0 0-150.869333-203.776c-87.04 0-157.696 70.656-157.696 157.696 0 18.432 3.413333 36.522667 9.898666 54.272 2.389333 6.485333 0.682667 13.994667-4.437333 18.432-5.12 4.778667-12.629333 5.802667-18.773333 2.730667-21.845333-10.24-45.056-15.701333-69.290667-15.701334-87.04 0-157.696 70.656-157.696 157.696s70.656 157.696 157.696 157.696c9.216 0 17.066667 7.509333 17.066667 17.066667 0 9.216-7.509333 17.066667-17.066667 17.066667-105.472 0-191.488-86.016-191.488-191.488S182.272 221.866667 287.744 221.866667c17.749333 0 35.157333 2.389333 51.882667 7.168A191.829333 191.829333 0 0 1 528.384 4.778667a191.829333 191.829333 0 0 1 189.44 219.477333c10.581333-1.706667 21.162667-2.730667 31.744-2.730667 105.472 0 191.488 86.016 191.488 191.488s-85.674667 191.488-191.488 191.488z" fill="#666666" p-id="6904"></path><path d="M462.165333 508.586667c-4.437333 0-8.533333-1.706667-11.946666-5.12l-59.392-59.392-59.392 59.392c-6.485333 6.485333-17.408 6.485333-23.893334 0a17.1008 17.1008 0 0 1 0-23.893334l71.338667-71.338666c6.485333-6.485333 17.749333-6.485333 23.893333 0l71.338667 71.338666a17.1008 17.1008 0 0 1-11.946667 29.013334z" fill="#666666" p-id="6905"></path><path d="M518.826667 858.453333c-9.216 0-17.066667-7.509333-17.066667-17.066666V325.632c0-9.216 7.509333-17.066667 17.066667-17.066667 9.216 0 17.066667 7.509333 17.066666 17.066667v515.413333c-0.341333 9.557333-7.850667 17.408-17.066666 17.408z" fill="#32AE1B" p-id="6906"></path><path d="M407.893333 686.08v-260.096c0-9.216-7.509333-17.066667-17.066666-17.066667-9.216 0-17.066667 7.509333-17.066667 17.066667v260.096h34.133333zM666.965333 652.288v-226.304c0-9.216-7.509333-17.066667-17.066666-17.066667-9.216 0-17.066667 7.509333-17.066667 17.066667v226.304h34.133333z" fill="#666666" p-id="6907"></path><path d="M590.848 405.845333c-4.437333 0-8.533333-1.706667-11.946667-5.12L519.509333 341.333333l-59.392 59.392c-6.485333 6.485333-17.408 6.485333-23.893333 0a17.1008 17.1008 0 0 1 0-23.893333l71.338667-71.338667c6.485333-6.485333 17.749333-6.485333 23.893333 0l71.338667 71.338667c6.485333 6.485333 6.485333 17.408 0 23.893333-3.413333 3.754667-7.509333 5.12-11.946667 5.12z" fill="#32AE1B" p-id="6908"></path><path d="M721.92 508.586667c-4.437333 0-8.533333-1.706667-11.946667-5.12l-59.392-59.392-59.392 59.392c-6.485333 6.485333-17.408 6.485333-23.893333 0a17.1008 17.1008 0 0 1 0-23.893334l71.338667-71.338666c6.485333-6.485333 17.749333-6.485333 23.893333 0l71.338667 71.338666a17.1008 17.1008 0 0 1-11.946667 29.013334zM417.109333 970.752c-4.437333 18.432-20.821333 31.744-39.594666 31.744-17.749333 0-32.768-11.264-38.570667-27.648H179.541333c-5.802667 16.384-20.821333 27.648-38.570666 27.648-19.114667 0-35.157333-13.312-39.594667-31.744-19.797333-8.192-32.426667-29.013333-30.72-51.541333l3.754667-52.906667c1.365333-21.162667 15.018667-39.936 33.792-48.469333l17.066666-82.602667c6.144-30.378667 35.84-54.954667 66.218667-54.954667h135.168c30.037333 0 59.733333 24.576 66.218667 54.954667l17.066666 82.602667c19.114667 8.874667 32.426667 27.306667 34.133334 48.469333l3.754666 52.906667c1.706667 22.869333-10.922667 43.349333-30.72 51.541333z m3.754667-102.741333c-1.024-13.653333-11.264-26.282667-24.576-30.378667a11.810133 11.810133 0 0 1-8.192-9.898667c0-0.682667 0-1.365333-0.341333-2.048v-1.024l-17.408-84.650666c-4.096-19.456-23.893333-36.181333-43.349334-36.181334H191.488c-19.456 0-39.253333 16.384-43.349333 36.181334l-17.749334 84.650666v1.024c0 0.682667 0 1.365333-0.341333 2.048a10.922667 10.922667 0 0 1-8.192 9.557334c-13.653333 4.096-23.552 16.725333-24.576 30.378666l-3.754667 52.906667c-1.024 13.994667 7.509333 26.282667 20.821334 29.354667 4.778667 1.365333 8.533333 5.802667 8.874666 11.264 0.341333 9.898667 8.192 17.749333 18.090667 17.749333 9.216 0 17.066667-7.168 17.749333-17.066667 0.682667-6.144 5.461333-10.922667 11.605334-10.922666h177.493333c6.144 0 10.922667 4.778667 11.605333 10.922666 0.682667 9.557333 8.533333 17.066667 17.749334 17.066667 9.557333 0 17.408-7.850667 18.090666-17.749333 0.341333-5.461333 3.754667-9.898667 8.874667-10.922667 13.312-3.072 21.845333-15.36 20.821333-29.354667l-4.437333-52.906666z m-40.618667 46.762666c-4.778667 5.12-11.605333 7.850667-18.432 7.850667s-13.653333-2.730667-18.432-7.850667a27.204267 27.204267 0 0 1 0-37.546666c4.778667-5.12 11.605333-7.850667 18.432-7.850667s13.653333 2.730667 18.432 7.850667c4.778667 4.778667 7.509333 11.946667 7.509334 18.773333 0.341333 6.826667-2.389333 13.994667-7.509334 18.773333z m-21.845333-90.453333c-2.389333 2.730667-5.802667 4.437333-10.24 4.437333H170.325333c-4.437333 0-7.850667-1.706667-10.24-4.437333-2.389333-2.730667-3.413333-6.826667-2.730666-10.922667v-1.024l13.994666-62.122666a22.528 22.528 0 0 1 21.162667-18.090667h133.461333c9.898667 0 19.114667 8.192 20.821334 18.090667l13.994666 62.122666c0 0.341333 0 0.682667 0.341334 1.024 0.682667 4.096-0.341333 7.850667-2.730667 10.922667z m-33.792-68.608H193.877333l-10.922666 49.493333h152.917333l-11.264-49.493333zM174.762667 914.773333c-4.778667 5.12-11.605333 7.850667-18.432 7.850667s-13.653333-2.730667-18.432-7.850667a27.204267 27.204267 0 0 1 0-37.546666c4.778667-5.12 11.605333-7.850667 18.432-7.850667s13.653333 2.730667 18.432 7.850667a27.204267 27.204267 0 0 1 0 37.546666z m0 0M912.384 962.218667c-4.437333 18.432-20.821333 31.744-39.594667 31.744-17.749333 0-32.768-11.264-38.570666-27.648h-159.061334c-5.802667 16.384-20.821333 27.648-38.570666 27.648-19.114667 0-35.157333-13.312-39.594667-31.744-19.797333-8.192-32.426667-29.013333-30.72-51.541334l3.754667-52.906666c1.365333-21.162667 15.018667-39.936 33.792-48.469334l17.066666-82.602666c6.144-30.378667 35.84-54.954667 66.218667-54.954667h135.168c30.037333 0 59.733333 24.576 66.218667 54.954667l17.066666 82.602666c19.114667 8.874667 32.426667 27.306667 34.133334 48.469334l3.754666 52.906666c1.365333 22.869333-11.264 43.349333-31.061333 51.541334z m4.096-102.741334c-1.024-13.653333-11.264-26.282667-24.576-30.378666a11.810133 11.810133 0 0 1-8.192-9.898667c0-0.682667 0-1.365333-0.341333-2.048v-1.024l-17.408-84.650667c-4.096-19.456-23.893333-36.181333-43.349334-36.181333h-135.168c-19.456 0-39.253333 16.384-43.349333 36.181333l-17.749333 84.650667v1.024c0 0.682667 0 1.365333-0.341334 2.048-0.682667 4.778667-3.754667 8.533333-8.192 9.898667-13.653333 4.096-23.552 16.725333-24.576 30.378666l-3.754666 52.906667c-1.024 13.994667 7.509333 26.282667 20.821333 29.354667 5.12 1.365333 8.533333 5.802667 8.874667 10.922666 0.341333 9.898667 8.192 17.749333 18.090666 17.749334 9.216 0 17.066667-7.168 17.749334-17.066667 0.682667-6.144 5.461333-10.922667 11.605333-10.922667h177.493333c6.144 0 10.922667 4.778667 11.605334 10.922667 0.682667 9.557333 8.533333 17.066667 17.749333 17.066667 9.557333 0 17.408-7.850667 18.090667-17.749334 0.341333-5.461333 3.754667-9.898667 8.874666-10.922666 13.312-3.072 21.845333-15.36 20.821334-29.354667l-4.778667-52.906667z m-40.618667 46.762667c-4.778667 5.12-11.605333 7.850667-18.432 7.850667s-13.653333-2.730667-18.432-7.850667a27.204267 27.204267 0 0 1 0-37.546667c4.778667-5.12 11.605333-7.850667 18.432-7.850666s13.653333 2.730667 18.432 7.850666a27.204267 27.204267 0 0 1 0 37.546667z m-22.186666-90.453333c-2.389333 2.730667-5.802667 4.437333-10.24 4.437333H665.6c-4.437333 0-7.850667-1.706667-10.24-4.437333-2.389333-2.730667-3.413333-6.826667-2.730667-10.922667v-1.024l13.994667-62.122667a22.528 22.528 0 0 1 21.162667-18.090666h133.461333c9.898667 0 19.114667 8.192 20.821333 18.090666l13.994667 62.122667c0 0.341333 0 0.682667 0.341333 1.024 0.682667 4.096-0.341333 7.850667-2.730666 10.922667z m-33.792-68.608h-130.730667l-10.922667 49.493333h152.917334l-11.264-49.493333z m-149.504 159.061333c-4.778667 5.12-11.605333 7.850667-18.432 7.850667s-13.653333-2.730667-18.432-7.850667a27.204267 27.204267 0 0 1 0-37.546667c4.778667-5.12 11.605333-7.850667 18.432-7.850666s13.653333 2.730667 18.432 7.850666a27.204267 27.204267 0 0 1 0 37.546667z m0 0" fill="#666666" p-id="6909"></path></svg>